<svg id="visual" viewBox="0 0 900 600" width="900" height="600" xmlns="http://www.w3.org/2000/svg" xmlns:xlink="http://www.w3.org/1999/xlink" version="1.1"><rect x="0" y="0" width="900" height="600" fill="#001220"></rect><path d="M0 379L15 378.8C30 378.7 60 378.3 90 386.3C120 394.3 150 410.7 180 414.7C210 418.7 240 410.3 270 411.8C300 413.3 330 424.7 360 424C390 423.3 420 410.7 450 408C480 405.3 510 412.7 540 416.5C570 420.3 600 420.7 630 423C660 425.3 690 429.7 720 419.3C750 409 780 384 810 379.7C840 375.3 870 391.7 885 399.8L900 408L900 601L885 601C870 601 840 601 810 601C780 601 750 601 720 601C690 601 660 601 630 601C600 601 570 601 540 601C510 601 480 601 450 601C420 601 390 601 360 601C330 601 300 601 270 601C240 601 210 601 180 601C150 601 120 601 90 601C60 601 30 601 15 601L0 601Z" fill="#009473"></path><path d="M0 460L15 460.8C30 461.7 60 463.3 90 455.8C120 448.3 150 431.7 180 426.3C210 421 240 427 270 436.7C300 446.3 330 459.7 360 468C390 476.3 420 479.7 450 479C480 478.3 510 473.7 540 469.7C570 465.7 600 462.3 630 454.3C660 446.3 690 433.7 720 431.2C750 428.7 780 436.3 810 438.8C840 441.3 870 438.7 885 437.3L900 436L900 601L885 601C870 601 840 601 810 601C780 601 750 601 720 601C690 601 660 601 630 601C600 601 570 601 540 601C510 601 480 601 450 601C420 601 390 601 360 601C330 601 300 601 270 601C240 601 210 601 180 601C150 601 120 601 90 601C60 601 30 601 15 601L0 601Z" fill="#00676f"></path><path d="M0 524L15 517.8C30 511.7 60 499.3 90 492.7C120 486 150 485 180 487.8C210 490.7 240 497.3 270 502.5C300 507.7 330 511.3 360 508.8C390 506.3 420 497.7 450 492C480 486.3 510 483.7 540 480.8C570 478 600 475 630 473C660 471 690 470 720 471.3C750 472.7 780 476.3 810 480.2C840 484 870 488 885 490L900 492L900 601L885 601C870 601 840 601 810 601C780 601 750 601 720 601C690 601 660 601 630 601C600 601 570 601 540 601C510 601 480 601 450 601C420 601 390 601 360 601C330 601 300 601 270 601C240 601 210 601 180 601C150 601 120 601 90 601C60 601 30 601 15 601L0 601Z" fill="#013a4d"></path><path d="M0 566L15 564.3C30 562.7 60 559.3 90 554.3C120 549.3 150 542.7 180 543.3C210 544 240 552 270 555.7C300 559.3 330 558.7 360 550.2C390 541.7 420 525.3 450 518.8C480 512.3 510 515.7 540 520.8C570 526 600 533 630 536.5C660 540 690 540 720 537.2C750 534.3 780 528.7 810 524.3C840 520 870 517 885 515.5L900 514L900 601L885 601C870 601 840 601 810 601C780 601 750 601 720 601C690 601 660 601 630 601C600 601 570 601 540 601C510 601 480 601 450 601C420 601 390 601 360 601C330 601 300 601 270 601C240 601 210 601 180 601C150 601 120 601 90 601C60 601 30 601 15 601L0 601Z" fill="#001122"></path></svg>